<svg width="150" height="150" viewBox="0 0 150 150" fill="none" xmlns="http://www.w3.org/2000/svg">
<path fill-rule="evenodd" clip-rule="evenodd" d="M104.263 118.518C102.514 118.565 100.823 117.891 99.5861 116.655C98.3488 115.419 97.6737 113.729 97.7187 111.981C97.7599 107.858 101.156 105.531 104.266 105.502C107.446 105.47 110.777 108.152 110.807 111.981C110.836 115.809 107.452 118.736 104.263 118.518Z" fill="#FFCF00"/>
<path fill-rule="evenodd" clip-rule="evenodd" d="M15.4343 37.9042C12.8535 43.6303 11.1295 49.7049 10.3176 55.933L10.0027 60.0133C9.98619 60.2137 10.0545 60.412 10.1911 60.5597C10.3276 60.7074 10.5198 60.7911 10.721 60.7905H17.7159C18.4235 60.7905 19.131 60.7921 19.8385 60.7937C21.2536 60.797 22.6687 60.8003 24.0838 60.7905C24.9376 60.7846 24.9847 60.7257 25.0995 59.866C25.1598 59.4344 25.214 59.0023 25.2682 58.5704C25.354 57.886 25.4398 57.2022 25.5499 56.5217C26.4938 50.6055 28.5272 44.9157 31.5468 39.7412C36.5462 31.1302 44.0583 24.2531 53.0762 20.0316C62.859 15.4424 73.8861 14.2219 84.4356 16.5606C95.7327 19.0964 105.094 25.0009 112.518 34.2744C114.302 36.5044 115.86 38.9057 117.17 41.4429C121.924 50.6486 123.729 60.3165 122.469 70.4172C121.036 82.0275 115.471 92.7339 106.792 100.578C106.742 100.622 106.689 100.665 106.636 100.709C106.417 100.885 106.194 101.066 106.133 101.376C106.305 101.64 106.565 101.687 106.822 101.733C106.909 101.749 106.996 101.764 107.078 101.788C111.959 103.18 115.68 107.779 114.732 113.628C113.793 119.428 108.135 123.582 101.905 122.343C95.8024 121.127 92.8937 115.039 93.777 110.42C93.7931 110.321 93.8282 110.214 93.8641 110.104C93.9653 109.795 94.0727 109.467 93.777 109.263C93.5503 109.111 93.2698 109.264 92.9982 109.412C92.8994 109.466 92.8017 109.519 92.7083 109.557C88.6331 111.252 84.3434 112.375 79.9608 112.895C79.2902 112.97 78.6197 113.037 77.9491 113.105C77.5009 113.15 77.0528 113.196 76.6046 113.243C76.1703 113.29 75.8327 113.643 75.8039 114.079C75.7959 114.254 75.7969 114.43 75.798 114.606C75.7993 114.817 75.8007 115.027 75.7862 115.236C75.6627 117.09 75.7112 118.95 75.7595 120.808C75.7688 121.166 75.7781 121.523 75.7862 121.88C75.8139 123.016 75.8111 124.153 75.8082 125.289C75.8062 126.085 75.8042 126.881 75.8127 127.677C75.8245 128.607 75.9511 128.699 76.8932 128.699H77.1875C78.021 128.599 78.8598 128.53 79.7014 128.462C80.6198 128.387 81.5415 128.312 82.4632 128.195C87.3494 127.566 92.1466 126.375 96.7592 124.645C98.0459 124.165 99.2907 123.63 100.543 123.093L100.775 122.993C101.243 122.778 101.573 122.825 101.814 123.288C101.851 123.355 101.895 123.419 101.938 123.483C101.967 123.525 101.996 123.568 102.023 123.611C107.44 132.057 112.837 140.514 118.215 148.982C118.579 149.664 119.315 150.062 120.084 149.992C124.235 149.966 128.386 149.969 132.535 149.972C133.919 149.973 135.302 149.974 136.686 149.974C136.911 149.986 137.137 149.986 137.363 149.974C137.837 149.936 137.896 149.801 137.657 149.347C137.594 149.236 137.525 149.128 137.451 149.023L126.853 132.443L115.666 114.974C115.34 114.462 115.443 113.787 115.907 113.396C123.416 107.017 129.359 98.9971 133.277 89.9562C136.694 82.0723 138.378 73.8086 138.576 65.227C138.611 63.6844 138.532 62.1447 138.434 60.605C138.328 58.8681 138.181 57.14 137.934 55.4237C135.837 40.3629 128.452 26.5387 117.099 16.4223C114.581 14.1707 111.894 12.1148 109.062 10.2724C104.95 7.61784 100.546 5.4447 95.9378 3.79568C89.4754 1.48527 82.6879 0.212462 75.8274 0.0244921C73.9344 -0.0343979 72.0385 0.0156521 70.1396 0.145172C67.6056 0.311472 65.0828 0.617122 62.5824 1.06074C47.3268 3.8415 33.5879 12.0364 23.8924 24.1384C20.4932 28.3445 17.6504 32.9712 15.4343 37.9042ZM65.4264 126.693V99.6777L65.4176 72.8622C65.4176 71.9484 65.4176 71.4943 65.1905 71.2686C64.9662 71.0456 64.5202 71.0456 63.6337 71.0456H24.3579C20.0168 71.0339 15.6737 71.0339 11.3287 71.0456C10.2719 71.0456 10.0953 71.2546 10.216 72.2233C10.783 76.7905 11.839 81.2836 13.3658 85.6252C13.6294 86.3795 13.7145 86.7403 13.9423 86.9125C14.1723 87.0864 14.5479 87.0678 15.4 87.0678H48.7941C48.9023 87.0678 49.0101 87.0652 49.1177 87.0625C49.3323 87.0573 49.546 87.0521 49.7597 87.0678C50.3661 87.109 50.4514 87.2032 50.4927 87.8362V88.6076V97.39C50.5044 105.944 50.5044 114.499 50.4927 123.054C50.4897 123.787 50.5868 124.332 51.4052 124.627C55.4774 126.142 59.6886 127.253 63.9781 127.945C65.4264 128.183 65.4264 128.148 65.4264 126.693Z" fill="#007ED9"/>
</svg>
